# xmcd
#
# Track frame offsets:
# 150
# 20579
# 31147
# 57326
# 76397
# 99667
# 111922
# 126532
# 143080
# 154452
# 176709
#
# Disc length: 2558 seconds
#
#
# Revision: 1
# Processed by: cddbd v1.5.1PL0 Copyright (c) Steve Scherf et al.
# Submitted via: FreeRIP 2.92 
#
DISCID=9909fc0b
DTITLE=Alexisonfire - Alexisonfire
DYEAR=2002
DGENRE=screamo
TTITLE0=44. Caliber Love Letter
TTITLE1=Counterparts And Number Them
TTITLE2=Adelleda
TTITLE3=A Dagger Through The Heart Of St. Angeles
TTITLE4=Polaroids Of Polar Bears
TTITLE5=Waterwings (and other poolside fashion faux pas)
TTITLE6=Where No One Knows
TTITLE7=The Kennedy Curse
TTITLE8=Jubella
TTITLE9=Little Girls Pointing And Laughing
TTITLE10=Pulmonary Archery
EXTD=
EXTT0=
EXTT1=
EXTT2=
EXTT3=
EXTT4=
EXTT5=
EXTT6=
EXTT7=
EXTT8=
EXTT9=
EXTT10=
PLAYORDER=
